# xmcd
#
# Track frame offsets: 
#        150
#        13067
#        27015
#        38782
#        54310
#        67997
#        85850
#        102997
#        120360
#        135052
#        147302
#        161002
#        184932
#
# Disc length: 2612 seconds
#
# Revision: 4
# Processed by: cddbd v1.5.2PL0 Copyright (c) Steve Scherf et al.
# Submitted via: ExactAudioCopy v0.99pb4
#
DISCID=9e0a320d
DTITLE=Robert Lockwood, Jr. - Plays Robert and Robert
DYEAR=1983
DGENRE=Blues
TTITLE0=Rambling On My Mind
TTITLE1=Kind Hearted Woman Blues
TTITLE2=Walking Blues
TTITLE3=I'm A Steady Rollin' Man
TTITLE4=Sweet Home Chicago
TTITLE5=Little Queen Of Spades
TTITLE6=Western Horizon
TTITLE7=She Is Sweet And Low
TTITLE8=Little Boy Blue
TTITLE9=Lockwood's Boogie
TTITLE10=Take A Walk With Me
TTITLE11=See See Rider
TTITLE12=Sweet Home Chicago (Alternate Take)
EXTD=YEAR: 1993
EXTT0=
EXTT1=
EXTT2=
EXTT3=
EXTT4=
EXTT5=
EXTT6=
EXTT7=
EXTT8=
EXTT9=
EXTT10=
EXTT11=
EXTT12=
PLAYORDER=
